<svg height="512" viewBox="0 0 512 512" width="512" xmlns="http://www.w3.org/2000/svg"><path d="M228 68.67c-68.48 0-124 55.51-124 124 0 68.48 55.52 124 124 124 68.48 0 124-55.52 124-124 0-68.49-55.52-124-124-124zm0 214.6c-50.04 0-90.6-40.57-90.6-90.6 0-50.04 40.56-90.6 90.6-90.6s90.6 40.56 90.6 90.6c0 50.03-40.56 90.6-90.6 90.6z" fill="#1A1A1A"/><path d="M392.79 414.308c6.095 9.157 4.12 21.283-4.39 26.944-8.51 5.662-20.457 2.803-26.55-6.355l-88.642-133.204c-6.094-9.158-4.118-21.283 4.39-26.944 8.51-5.663 20.46-2.804 26.553 6.354l88.64 133.204z" fill="#1A1A1A"/></svg>